<svg width="1439" height="1024" viewBox="0 0 1439 1024" fill="none" xmlns="http://www.w3.org/2000/svg">
<path d="M663.345 393.489C689.742 358.452 735.793 326.471 812.279 326.471" stroke="#F2C94C" stroke-width="15" stroke-linecap="round" stroke-linejoin="round"/>
<path d="M546.482 275.517C554.782 274.659 573.605 275.105 582.495 283.744" stroke="#F2C94C" stroke-width="15" stroke-linecap="round" stroke-linejoin="round"/>
<path d="M617.802 312.329C623.251 342.713 623.991 403.249 636.491 416.357C655.612 436.409 675.41 415.893 725.661 387.734C774.493 360.37 789.996 359.56 850.598 351.318" stroke="#F2C94C" stroke-width="15" stroke-linecap="round" stroke-linejoin="round"/>
<path d="M473.576 419.328C461.904 403.107 443.141 360.328 461.469 318.976C484.378 267.285 532.862 227.783 588.433 252.137C633.037 271.686 642.728 314.8 645.153 319.456" stroke="#F2C94C" stroke-width="15" stroke-linecap="round" stroke-linejoin="round"/>
<path d="M473.576 1018.77C461.904 1002.55 443.141 959.768 461.469 918.415C484.378 866.725 532.862 827.222 588.433 851.577C633.037 871.125 642.728 914.24 645.153 918.896" stroke="#F2C94C" stroke-width="15" stroke-linecap="round" stroke-linejoin="round"/>
<path d="M549.039 372.774C559.7 421.033 574.297 525.567 475.185 595.454C376.073 665.341 367.554 715.292 375.683 731.531" stroke="#F2C94C" stroke-width="15" stroke-linecap="round" stroke-linejoin="round"/>
<path d="M359.67 649.722C352.425 630.85 364.214 610.817 391.321 603.953" stroke="#F2C94C" stroke-width="15" stroke-linecap="round" stroke-linejoin="round"/>
<path d="M859.041 900.039C852.295 913.812 831.872 940.078 804.149 934.958" stroke="#F2C94C" stroke-width="15" stroke-linecap="round" stroke-linejoin="round"/>
<path d="M425.232 593.392C453.147 572.491 509.824 518.705 513.215 470.771C517.454 410.853 482.734 301.999 543.259 301.999C594.249 301.999 590.482 429.546 604.876 452.414C622.4 480.254 648.523 474.46 699.95 440.545C765.883 397.063 791.101 390.372 842.719 382.035" stroke="#F2C94C" stroke-width="15" stroke-linecap="round" stroke-linejoin="round"/>
<path d="M585.106 487.031C594.884 501.389 634.469 521.223 668.139 500.929C710.226 475.561 775.902 400.747 913.566 427.59" stroke="#F2C94C" stroke-width="15" stroke-linecap="round" stroke-linejoin="round"/>
<path d="M616.494 822.058C616.494 791.247 636.508 766.85 645.15 758.597C711.174 695.55 855.55 686.795 924.152 790.378" stroke="#F2C94C" stroke-width="15" stroke-linecap="round" stroke-linejoin="round"/>
<path d="M864.539 602.304C892.688 624.063 930.245 672.888 868.691 690.931C808.118 708.686 771.324 625.652 663.193 710.352" stroke="#F2C94C" stroke-width="15" stroke-linecap="round" stroke-linejoin="round"/>
<path d="M863.101 5.82535C885.695 22.7969 954.205 90.9872 883.434 97.2873C819.204 103.005 771.325 26.2121 663.193 110.912M616.494 222.618C616.493 191.807 636.508 167.41 645.15 159.157C711.173 96.1103 872.842 92.9437 937.441 213.38" stroke="#F2C94C" stroke-width="15" stroke-linecap="round" stroke-linejoin="round"/>
<path d="M652.067 845.114C643.289 803.861 705.926 692.269 854.253 776.575C868.439 785.792 880.895 794.641 906.471 836.032" stroke="#F2C94C" stroke-width="15" stroke-linecap="round" stroke-linejoin="round"/>
<path d="M803.471 900.081C778.209 906.77 725.398 903.791 705.067 870.997C679.653 830.005 713.711 782.957 783.782 788.49C839.839 792.916 854.635 819.642 873.154 854.121C892.273 889.715 972.923 924.376 1051.8 854.121" stroke="#F2C94C" stroke-width="15" stroke-linecap="round" stroke-linejoin="round"/>
<path d="M803.471 300.641C778.209 307.33 725.398 304.351 705.067 271.557C679.653 230.565 713.711 183.517 783.782 189.05C839.839 193.476 841.293 226.884 873.154 254.681C896.764 275.279 911.695 297.698 971.041 291.074" stroke="#F2C94C" stroke-width="15" stroke-linecap="round" stroke-linejoin="round"/>
<path d="M386.121 768.03C381.574 778.972 379.541 810.212 407.789 847.627" stroke="#F2C94C" stroke-width="15" stroke-linecap="round" stroke-linejoin="round"/>
<path d="M227.761 871.914C222.818 879.386 217.83 897.439 237.423 909.868" stroke="#F2C94C" stroke-width="15" stroke-linecap="round" stroke-linejoin="round"/>
<path d="M72.649 120.229C98.05 114.995 291.212 167.145 6.13919 328.369" stroke="#F2C94C" stroke-width="15" stroke-linecap="round" stroke-linejoin="round"/>
<path d="M1034.89 34.5692C1060.29 29.336 1253.46 81.4857 968.383 242.709" stroke="#F2C94C" stroke-width="15" stroke-linecap="round" stroke-linejoin="round"/>
<path d="M66.5094 796.551C91.9104 791.318 285.073 843.468 -0.000462828 1004.69" stroke="#F2C94C" stroke-width="15" stroke-linecap="round" stroke-linejoin="round"/>
<path d="M864.738 549.112C923.595 568.243 975.85 511.688 1006.74 481.031C1037.63 450.375 1109.84 363.601 1191.48 453.306" stroke="#F2C94C" stroke-width="15" stroke-linecap="round" stroke-linejoin="round"/>
<path d="M102.925 549.112C161.783 568.243 214.038 511.688 244.928 481.031C275.818 450.375 348.027 363.601 429.665 453.306" stroke="#F2C94C" stroke-width="15" stroke-linecap="round" stroke-linejoin="round"/>
<path d="M1020.69 397.597C1010.43 414.101 1018.08 448.148 1065.17 463.453C1124.03 482.584 1176.28 426.028 1207.17 395.372C1238.06 364.716 1310.27 277.942 1391.91 367.646" stroke="#F2C94C" stroke-width="15" stroke-linecap="round" stroke-linejoin="round"/>
<path d="M912.724 579.225C987.877 558.514 1029.54 522.827 1041.63 495.601C1056.94 461.111 1092.17 439.389 1119.3 445.507C1178.02 458.747 1182.95 524.028 1116.86 547.347C1050.78 570.667 1054.61 536.335 926.817 634.673" stroke="#F2C94C" stroke-width="15" stroke-linecap="round" stroke-linejoin="round"/>
<path d="M150.911 579.225C226.064 558.515 267.731 522.827 279.817 495.601C295.129 461.111 331.565 444.048 358.696 450.166C417.408 463.405 421.134 524.028 355.049 547.347C288.963 570.667 292.799 536.335 165.005 634.673" stroke="#F2C94C" stroke-width="15" stroke-linecap="round" stroke-linejoin="round"/>
<path d="M1005.99 527.963C1209.03 491.675 1229.98 437.167 1242.06 409.942C1257.37 375.451 1292.61 353.73 1319.74 359.848C1378.45 373.087 1383.38 438.368 1317.29 461.688C1251.21 485.007 1085.51 519.936 1086.14 668.204" stroke="#F2C94C" stroke-width="15" stroke-linecap="round" stroke-linejoin="round"/>
<path d="M1233.29 463.554C1238.87 486.074 1225.76 540.816 1128.67 579.626C1007.32 628.139 925.598 659.85 925.598 708.344" stroke="#F2C94C" stroke-width="15" stroke-linecap="round" stroke-linejoin="round"/>
<path d="M471.475 463.554C477.057 486.074 463.949 540.816 366.862 579.626C245.503 628.139 163.786 659.85 163.786 708.344" stroke="#F2C94C" stroke-width="15" stroke-linecap="round" stroke-linejoin="round"/>
<path d="M320.719 488.11C327.233 477.62 348.64 475.149 356.296 485.683C365.866 498.849 368.18 525.365 302.283 530.011" stroke="#F2C94C" stroke-width="15" stroke-linecap="round" stroke-linejoin="round"/>
<path d="M738.436 839.111C743.399 819.586 773.067 816.437 787.28 817.303C832.415 821.904 834.141 850.01 810.917 865.551C787.694 881.093 732.232 863.517 738.436 839.111Z" stroke="#F2C94C" stroke-width="15" stroke-linecap="round" stroke-linejoin="round"/>
<path d="M738.436 239.671C743.399 220.146 773.067 216.997 787.28 217.863C832.415 222.464 834.141 250.57 810.917 266.111C787.694 281.653 732.232 264.077 738.436 239.671Z" stroke="#F2C94C" stroke-width="15" stroke-linecap="round" stroke-linejoin="round"/>
<path d="M496.746 730.74C514.597 727.538 558.058 711.308 589.09 672.008C620.122 632.709 656.181 625.672 670.331 627.066" stroke="#F2C94C" stroke-width="15" stroke-linecap="round" stroke-linejoin="round"/>
<path d="M479.767 773.995C505.333 773.963 567.911 762.173 613.694 715.274C670.923 656.651 714.881 612.584 828.543 649.899" stroke="#F2C94C" stroke-width="15" stroke-linecap="round" stroke-linejoin="round"/>
<path d="M411.1 726.467C431.342 679.153 470.4 602.605 573.034 576.268C675.668 549.93 774.323 592.198 810.821 616.624" stroke="#F2C94C" stroke-width="15" stroke-linecap="round" stroke-linejoin="round"/>
<path d="M596.267 617.32C599.131 612.496 618.812 600.984 633.154 598.933" stroke="#F2C94C" stroke-width="15" stroke-linecap="round" stroke-linejoin="round"/>
<path d="M655.504 266.32C662.815 267.956 701.137 295.181 682.223 324.347" stroke="#F2C94C" stroke-width="15" stroke-linecap="round" stroke-linejoin="round"/>
<path d="M323.571 305C312.044 316.644 299.499 333.497 257.299 337.998" stroke="#F2C94C" stroke-width="15" stroke-linecap="round" stroke-linejoin="round"/>
<path d="M508.485 684.287C523.939 679.006 542.597 675.705 574.327 635.303" stroke="#F2C94C" stroke-width="15" stroke-linecap="round" stroke-linejoin="round"/>
<path d="M560.392 549.289C582.534 539.292 644.669 525.009 716.073 547.858C787.476 570.706 817.418 544.349 824.922 525.395C819.728 547.496 818.228 589.272 853.773 579.57" stroke="#F2C94C" stroke-width="15" stroke-linecap="round" stroke-linejoin="round"/>
<path d="M700.483 515.337C728.746 508.791 745.354 467.849 770.912 467.849C799.855 467.849 743.298 518.381 770.912 521.499C805.422 525.395 839.051 434.041 864.196 458.318C879.704 473.291 837.304 506.483 869.61 517.985C890.57 525.447 936.035 501.777 951.995 465.661" stroke="#F2C94C" stroke-width="15" stroke-linecap="round" stroke-linejoin="round"/>
<path d="M839.057 270.933C822.183 323.534 891.508 309.267 891.508 365.794" stroke="#F2C94C" stroke-width="15" stroke-linecap="round" stroke-linejoin="round"/>
<path d="M876.5 295.031C885.87 306.81 901.264 320.373 936.493 318.619" stroke="#F2C94C" stroke-width="15" stroke-linecap="round" stroke-linejoin="round"/>
<path d="M547.968 620.257C518.21 638.697 498.735 649.088 462.798 702.17C430.111 750.451 430.986 802.798 468.092 810.969C505.198 819.139 514.555 804.555 531.018 798.41C547.48 792.266 573.532 789.967 583.278 815.165" stroke="#F2C94C" stroke-width="15" stroke-linecap="round" stroke-linejoin="round"/>
<path d="M430.839 264.699C392.711 353.386 398.196 378.353 430.839 416.148" stroke="#F2C94C" stroke-width="15" stroke-linecap="round" stroke-linejoin="round"/>
<path d="M158.813 944.985C205.724 974.256 281.029 981.689 333.899 944.985C384.173 910.084 364.439 861.054 350.697 810.699C341.617 777.43 346.341 722.667 343.73 699.473C338.393 652.057 297.865 643.215 272.802 658.501C247.738 673.787 208.505 703.219 185.917 807.342C180.8 833.038 173.024 865.824 196.468 871.512C219.818 877.177 260.803 869.084 268.611 813.996" stroke="#F2C94C" stroke-width="15" stroke-linecap="round" stroke-linejoin="round"/>
<path d="M158.813 345.545C205.724 374.816 281.029 382.249 333.899 345.545C384.173 310.644 364.439 261.614 350.697 211.259C341.617 177.99 346.341 123.227 343.73 100.032C338.393 52.617 297.865 43.7749 272.802 59.0607C247.738 74.3464 208.505 103.779 185.917 207.902C180.8 233.598 173.024 266.384 196.468 272.072C219.818 277.736 260.803 269.644 268.611 214.556" stroke="#F2C94C" stroke-width="15" stroke-linecap="round" stroke-linejoin="round"/>
<path d="M204.658 911.105C322.548 921.206 303.846 837.943 303.846 815.195C303.846 792.446 305.369 739.725 308.912 715.688C312.454 691.65 281.829 676.784 257.641 723.72C233.454 770.656 234.788 816.843 220.732 833.447" stroke="#F2C94C" stroke-width="15" stroke-linecap="round" stroke-linejoin="round"/>
<path d="M204.658 311.665C322.548 321.765 303.846 238.503 303.846 215.755C303.846 193.006 305.369 140.285 308.912 116.248C312.454 92.21 281.829 77.3439 257.641 124.28C233.454 171.216 234.788 217.403 220.732 234.007" stroke="#F2C94C" stroke-width="15" stroke-linecap="round" stroke-linejoin="round"/>
<path d="M920.625 944.986C967.536 974.256 1031.57 1002.07 1101.01 957.592C1140.24 932.459 1120.69 926.168 1105.54 817.113C1098.32 765.081 1105.54 722.758 1105.54 699.473C1105.54 657.452 1059.68 643.215 1034.61 658.501C1009.55 673.787 970.317 703.219 947.73 807.342C942.613 833.038 934.837 865.824 958.281 871.512C981.63 877.177 1011.8 872.201 1019.61 817.113" stroke="#F2C94C" stroke-width="15" stroke-linecap="round" stroke-linejoin="round"/>
<path d="M966.47 911.105C1104.78 965.744 1058.88 857.875 1065.66 815.195C1072.44 772.515 1074.91 743.112 1078.46 719.074C1082 695.037 1058.61 685.461 1030.39 706.666C1002.16 727.871 996.6 816.843 982.545 833.448" stroke="#F2C94C" stroke-width="15" stroke-linecap="round" stroke-linejoin="round"/>
<path d="M920.625 345.546C967.536 374.816 1031.57 402.63 1101.01 358.152C1140.24 333.019 1120.69 326.728 1105.54 217.673C1098.32 165.641 1105.54 123.318 1105.54 100.033C1105.54 58.0121 1059.68 43.7753 1034.61 59.061C1009.55 74.3468 970.317 103.779 947.73 207.902C942.613 233.598 934.837 266.384 958.281 272.072C981.63 277.737 1011.8 272.761 1019.61 217.673" stroke="#F2C94C" stroke-width="15" stroke-linecap="round" stroke-linejoin="round"/>
<path d="M966.469 311.665C1104.78 366.304 1058.88 258.435 1065.66 215.755C1072.44 173.075 1074.91 143.672 1078.46 119.634C1082 95.597 1058.61 86.0209 1030.39 107.226C1002.16 128.431 996.599 217.403 982.544 234.008" stroke="#F2C94C" stroke-width="15" stroke-linecap="round" stroke-linejoin="round"/>
<path d="M230.064 447.229C207.312 443.804 178.146 429.918 178.146 405.208C178.146 388.497 211.738 402.976 246.9 405.208C292.228 408.085 347.497 391.331 371.685 360.4" stroke="#F2C94C" stroke-width="15" stroke-linecap="round" stroke-linejoin="round"/>
<path d="M991.876 447.228C969.125 443.804 939.959 429.918 939.959 405.208C939.959 388.497 973.551 402.976 1008.71 405.208C1054.04 408.085 1133.5 383.928 1133.5 360.4" stroke="#F2C94C" stroke-width="15" stroke-linecap="round" stroke-linejoin="round"/>
</svg>
