<svg width="1440" height="1024" viewBox="0 0 1440 1024" fill="none" xmlns="http://www.w3.org/2000/svg">
<path d="M1205.35 226.53C1202.22 220.394 1197.53 210.251 1190.97 207.224C1180.21 202.257 1168.76 210.572 1159.1 214.922C1141.22 222.972 1121.06 228.132 1104.09 215.225C1084.5 200.327 1078.65 172.154 1059.13 156.829C1034.73 137.681 1003.02 134.136 975.904 121.256C952.912 110.337 933.925 92.2386 910.911 81.1797C869.959 61.5048 805.852 52.0228 760.951 56.3808C721.209 60.2392 681.06 70.8791 643.374 84.5218C620.378 92.8457 599.318 105.321 575.125 109.836C517.462 120.593 449.276 85.2661 401.096 132.547C359.827 173.043 358.154 238.989 378.892 290.742C390.986 320.92 419.919 349.627 402.132 383.525C387.599 411.222 355.494 419.968 330.017 432.144C283.536 454.358 243.327 492.796 247.597 551.724" stroke="#F2C94C" stroke-width="31" stroke-miterlimit="1.5" stroke-linecap="round" stroke-linejoin="round"/>
<path d="M495.078 453.914C491.269 441.944 485.374 428.354 485.941 415.621C487.397 382.823 520.531 359.879 548.976 351.332C561.595 347.539 602.33 336.715 614.441 343.945C625.322 350.438 629.911 364.612 633.475 375.994C635.459 382.329 639.541 391.319 638.24 398.049C636.439 407.366 624.264 408.606 616.788 410.635C600.458 415.068 585.645 423.586 573.01 434.763C557.326 448.641 546.182 466.999 541.08 487.246C537.412 501.8 538.783 523.677 523.05 531.797C510.751 538.144 491.519 524.307 481.424 518.651C456.928 504.931 428.858 492.145 400.138 495.993C373.315 499.589 353.728 510.318 336.968 531.278C329.108 541.11 324.113 556.997 331.873 568.37C340.247 580.639 356.467 579.389 369.208 576.258C386.213 572.078 406.729 567.361 424.227 571.006C468.756 580.279 508.19 639.81 557.136 623.637C584.443 614.615 591.065 571.084 606.091 549.477C634.675 508.377 686.878 497.155 734.065 502.982" stroke="#F2C94C" stroke-width="31" stroke-miterlimit="1.5" stroke-linecap="round" stroke-linejoin="round"/>
<path d="M1275.03 418.357C1257.19 389.857 1250.11 345.614 1222.96 324.597C1175.59 287.928 1093.97 334.456 1090.5 390.147C1087.91 431.75 1103.23 467.929 1115.61 506.46C1121.03 523.332 1128.95 553.073 1120.27 570.2C1107.97 594.474 1085.22 598.178 1062.91 609.666C1038.55 622.205 1016.71 639.648 992.546 652.79C944.707 678.806 888.791 701.025 837.029 671.897C805.37 654.081 781.85 624.131 751.609 604.006C725.559 586.671 680.684 573.745 661.801 607.941C634.561 657.27 695.28 665.477 720.499 683.566C743.85 700.315 757.883 726.135 779.723 744.334C803.808 764.404 882.968 774.353 845.326 826.225C836.912 837.819 827.044 847.409 819.319 859.719C809.734 874.986 798.444 891.942 782.128 900.705C759.094 913.073 750.291 899.017 744.748 876.225C732.715 826.751 740.508 777.326 690.389 746.29C645.848 718.712 595.554 732.514 547.598 722.295C506.418 713.517 475.688 684.339 436.275 672.692" stroke="#F2C94C" stroke-width="31" stroke-miterlimit="1.5" stroke-linecap="round" stroke-linejoin="round"/>
<path d="M1277.71 422.758C1281.13 427.397 1285.12 431.948 1289.63 435.561C1318.94 459.025 1341.68 418.058 1351.2 396.836C1353.32 392.104 1355.04 387.121 1356.79 382.24C1359.11 375.785 1361.89 369.452 1365.11 363.398C1369.61 354.955 1374.65 346.153 1381 338.941C1398.45 319.094 1426.16 314.344 1444.05 336.065C1452.94 346.869 1457.52 361.305 1459.6 374.966C1463.88 403.199 1457.96 442.095 1437.08 463.107C1424.9 475.376 1408.38 481.939 1393.81 490.764C1374.77 502.291 1357.33 516.134 1342.52 532.808C1331.93 544.74 1322.75 558.527 1316.43 573.19C1308.65 591.219 1303.64 610.17 1290.52 625.297C1267.55 651.783 1222.82 671.338 1231.91 713.198C1238.58 743.922 1288.79 734.094 1308.34 725.712C1313.95 723.305 1319.41 720.442 1324.4 716.894C1365.92 687.362 1360.44 625.671 1387.89 585.717C1399.2 569.265 1424.87 547.937 1442.82 568.461C1482.05 613.346 1431.52 668.217 1416.27 710.132C1406.33 737.487 1412.41 772.975 1384.43 790.485C1378.83 793.992 1372.77 796.661 1366.47 798.636C1345.31 805.268 1322.93 806.436 1301.88 798.81C1283.8 792.265 1267 778.031 1246.66 779.713" stroke="#F2C94C" stroke-width="31" stroke-miterlimit="1.5" stroke-linecap="round" stroke-linejoin="round"/>
<path d="M-3.29263 422.758C0.132762 427.397 4.11513 431.948 8.62912 435.561C37.9351 459.025 60.6833 418.058 70.1953 396.836C72.3169 392.104 74.0343 387.121 75.7884 382.24C78.109 375.785 80.8945 369.452 84.1145 363.398C88.6077 354.955 93.655 346.153 99.9962 338.941C117.452 319.094 145.17 314.344 163.044 336.065C171.934 346.869 176.529 361.305 178.6 374.966C182.878 403.199 176.954 442.095 156.084 463.107C143.898 475.376 127.38 481.939 112.806 490.764C93.7727 502.291 76.3247 516.134 61.5253 532.808C50.9328 544.74 41.752 558.527 35.4266 573.19C27.6497 591.219 22.6438 610.17 9.52365 625.297C-13.4522 651.783 -58.1784 671.338 -49.0897 713.198C-42.4182 743.922 7.78712 734.094 27.3361 725.712C32.9515 723.305 38.4125 720.442 43.3993 716.894C84.9167 687.362 79.4365 625.671 106.89 585.717C118.196 569.265 143.876 547.937 161.819 568.461C201.055 613.346 150.515 668.217 135.277 710.132C125.334 737.487 131.403 772.975 103.431 790.485C97.8299 793.992 91.7705 796.661 85.4722 798.636C64.3109 805.268 41.9333 806.436 20.8754 798.81C2.80031 792.265 -13.9967 778.031 -34.3402 779.713" stroke="#F2C94C" stroke-width="31" stroke-miterlimit="1.5" stroke-linecap="round" stroke-linejoin="round"/>
<path d="M1182.4 395.698C1171.64 450.388 1215.22 483.223 1215.97 535.057C1216.87 597.792 1149.3 675.265 1114.26 724.019" stroke="#F2C94C" stroke-width="31" stroke-miterlimit="1.5" stroke-linecap="round" stroke-linejoin="round"/>
<path d="M1065.39 683.711C1035.92 721.971 1008.76 710.558 973.675 741.676C956.612 756.81 926.436 785.369 931.466 810.21C936.132 833.259 964.111 857.797 983.155 854.469C1022.33 847.622 1086.01 781.814 1122.23 803.619C1147.26 818.685 1161.65 845.614 1186.86 860.074C1213.17 875.163 1241.13 868.009 1268.87 876.481C1291.96 883.531 1308.41 901.708 1330.68 909.824C1365.59 922.547 1413.89 905.504 1439.13 937.535C1465.66 971.214 1458.3 1008.67 1462.29 1048.16C1465.09 1075.93 1474.76 1101.54 1482.3 1128.17" stroke="#F2C94C" stroke-width="31" stroke-miterlimit="1.5" stroke-linecap="round" stroke-linejoin="round"/>
<path d="M-202.514 662.915C-231.993 701.175 -278.586 714.049 -313.668 745.168C-330.731 760.302 -347.107 776.413 -342.077 801.255C-337.411 824.304 -308.878 828.664 -289.835 825.336C-250.659 818.489 -194.986 781.814 -158.764 803.619C-133.74 818.685 -119.348 845.614 -94.1377 860.074C-67.8298 875.163 -39.8732 868.008 -12.1255 876.481C10.9641 883.53 27.4071 901.708 49.68 909.824C84.5901 922.547 132.887 905.503 158.122 937.535C184.655 971.213 177.299 1008.67 181.288 1048.16C184.094 1075.93 193.765 1101.54 201.297 1128.17" stroke="#F2C94C" stroke-width="31" stroke-miterlimit="1.5" stroke-linecap="round" stroke-linejoin="round"/>
<path d="M1176.23 1058.93C1239.89 1095.3 1284.28 1123.72 1360.6 1118.17C1405.6 1114.9 1413.81 1045.69 1381.56 1020.28C1358.48 1002.09 1323.23 1006.98 1295.88 1006.87C1257.58 1006.7 1215.41 1001.09 1180.31 984.987C1146.63 969.543 1123.91 938.594 1093.58 918.246C1085.5 912.826 1067.32 900.695 1060.03 911.253C1033.32 949.97 1075.36 993.852 1092.26 1027.15C1106.51 1055.2 1112.33 1089.05 1116.91 1119.98" stroke="#F2C94C" stroke-width="31" stroke-miterlimit="1.5" stroke-linecap="round" stroke-linejoin="round"/>
<path d="M-104.775 1058.93C-41.113 1095.3 3.28315 1123.72 79.6028 1118.17C124.597 1114.9 132.816 1045.69 100.561 1020.28C77.4762 1002.09 42.2325 1006.98 14.8772 1006.87C-23.4185 1006.7 -65.5942 1001.09 -100.692 984.987C-134.366 969.543 -157.091 938.594 -187.419 918.246C-195.495 912.826 -213.682 900.695 -220.968 911.253C-247.685 949.97 -205.642 993.852 -188.737 1027.15C-174.492 1055.2 -168.674 1089.05 -164.094 1119.98" stroke="#F2C94C" stroke-width="31" stroke-miterlimit="1.5" stroke-linecap="round" stroke-linejoin="round"/>
<path d="M598.406 931.018C619.568 902.365 644.597 902.529 667.81 929.969C695.912 963.187 702.578 1011.9 753.981 1014.57C830.685 1018.54 840.632 916.938 906.871 886.45" stroke="#F2C94C" stroke-width="31" stroke-miterlimit="1.5" stroke-linecap="round" stroke-linejoin="round"/>
<path d="M672.705 1039.6C697.741 1079.81 743.574 1109.25 792.353 1096.2C831.745 1085.67 871.299 1051.85 898.986 1023.05C915.32 1006.06 945.115 949.434 973.296 958.366C993.833 964.875 1004.83 987.841 1008.67 1007.51C1016.75 1048.83 1001.27 1090.23 1022.55 1129.33" stroke="#F2C94C" stroke-width="31" stroke-miterlimit="1.5" stroke-linecap="round" stroke-linejoin="round"/>
<path d="M649.169 -177.425C633.294 -130.799 623.387 16.0336 541.295 8.8679" stroke="#F2C94C" stroke-width="31" stroke-miterlimit="1.5" stroke-linecap="round" stroke-linejoin="round"/>
<path d="M627.256 1031.84C600.666 1051.52 577.796 1074.06 562.971 1106.12C547.12 1140.39 543.682 1178.42 511.748 1200.09C466.746 1230.63 428.653 1192.53 383.034 1191.13C308.877 1181.16 269.854 1281.1 94.4766 1192.84" stroke="#F2C94C" stroke-width="31" stroke-miterlimit="1.5" stroke-linecap="round" stroke-linejoin="round"/>
<path d="M667.581 -3.44513C724.374 -15.9348 784.641 -31.9105 842.85 -20.3426C890.389 -10.8966 931.781 16.8588 978.345 29.2672C1053.11 49.1904 1096.65 33.4346 1146.03 106.577" stroke="#F2C94C" stroke-width="31" stroke-miterlimit="1.5" stroke-linecap="round" stroke-linejoin="round"/>
<path d="M1255.05 11.0142C1226.7 50.861 1191.75 98.3387 1198.68 150.387" stroke="#F2C94C" stroke-width="31" stroke-miterlimit="1.5" stroke-linecap="round" stroke-linejoin="round"/>
<path d="M1336.4 21.9026C1313.21 53.3896 1273.86 86.3023 1266.99 126.67C1263.05 149.832 1272.96 172.505 1271.87 195.877C1271.29 208.224 1272.67 264.871 1286.64 271.435C1319.65 286.954 1365.4 219.338 1402.49 217.405" stroke="#F2C94C" stroke-width="31" stroke-miterlimit="1.5" stroke-linecap="round" stroke-linejoin="round"/>
<path d="M142.388 30.0957C272.633 46.2988 263.904 -11.0351 441.671 -25.9522" stroke="#F2C94C" stroke-width="31" stroke-miterlimit="1.5" stroke-linecap="round" stroke-linejoin="round"/>
<path d="M37.1992 149.362C80.0156 143.937 123.381 138.206 163.506 121.692" stroke="#F2C94C" stroke-width="31" stroke-miterlimit="1.5" stroke-linecap="round" stroke-linejoin="round"/>
<path d="M1318.97 149.362C1361.79 143.937 1405.15 138.206 1445.28 121.692" stroke="#F2C94C" stroke-width="31" stroke-miterlimit="1.5" stroke-linecap="round" stroke-linejoin="round"/>
<path d="M316.525 698.117C309.501 718.498 302.775 739.828 300.168 761.271" stroke="#F2C94C" stroke-width="31" stroke-miterlimit="1.5" stroke-linecap="round" stroke-linejoin="round"/>
<path d="M247.113 108.197C238.94 109.544 228.894 110.807 221.898 115.781C209.428 124.643 207.747 141.41 208.902 155.704C211.343 185.859 223.279 214.52 227.18 244.498C231.156 275.064 227.664 304.312 228.417 334.805C228.972 357.315 234.673 385.598 262.401 382.68C319.037 376.718 308.824 307.909 299.889 269.89C297.785 260.936 296.082 251.975 294.956 242.832C293.467 230.719 292.109 218.256 292.613 206.039C293.578 182.763 297.986 159.427 303.757 136.916C308.438 118.657 314.125 99.9771 324.911 84.3783C355.531 40.0981 420.931 29.2096 470.138 37.0578C492.789 40.6694 514.15 49.065 535.893 56.1092" stroke="#F2C94C" stroke-width="31" stroke-miterlimit="1.5" stroke-linecap="round" stroke-linejoin="round"/>
<path d="M1018.86 490.541C1036.35 583.724 899.601 649.036 836.651 582.736C796.638 540.592 790.694 477.967 812.234 425.625C822.471 400.749 867.141 355.923 843.443 331.622C833.724 321.654 816.454 325.484 804.71 328.463C771.883 336.789 684.065 395.989 683.612 321.805C683.566 314.192 684.669 306.447 687.254 299.266C697.865 269.776 731.521 258.301 759.499 251.614C820.69 236.986 914.436 239.214 950.293 302.511C967.599 333.06 946.59 353.113 927.546 376.162C910.039 397.352 890.237 423.856 880.222 449.561C870.626 474.189 870.479 504.348 892.702 522.003C911.502 536.94 937.922 522.644 947.669 504.19C957.414 485.736 955.335 463.828 964.886 445.454C974.395 427.16 990.746 413.378 1000.84 395.368C1012.34 374.83 1016.56 350.881 1026.25 329.396C1034.42 311.305 1046.78 285.126 1039.07 264.975C1030.69 243.062 994.758 249.362 975.561 234.324C951.971 215.845 929.524 194.603 902.277 181.382C843.491 152.861 764.521 154.494 703.26 174.834C671.206 185.477 646.992 214.431 613.802 220.868C571.405 229.09 536.636 198.08 498.28 204.827C471.077 209.611 459.173 249.786 477.742 269.375C514.097 307.725 566.802 253.68 605.492 275.926" stroke="#F2C94C" stroke-width="31" stroke-miterlimit="1.5" stroke-linecap="round" stroke-linejoin="round"/>
<path d="M633.504 804.619C581.272 820.052 537.656 840.268 521.993 896.945C518.248 910.504 516.348 924.094 517.114 938.169C519.18 976.164 535.957 1031.54 476.087 1030.68C409.446 1029.72 427.307 927.47 433.862 885.936C436.138 871.509 437.423 854.045 445.756 841.571C459.924 820.354 488.826 814.295 501.857 792.891C510.463 778.752 500.121 763.004 488.997 754.194C428.922 706.627 347.667 775.799 343.545 840.022C341.219 876.294 362.277 915.578 346.401 950.638C332.334 981.704 296.883 978.405 278.136 953.721C261.328 931.596 234.9 902.852 233.513 876.225C232.001 847.214 237.305 821.696 233.513 792.891C229.276 760.707 226.596 704.335 252.271 683.566" stroke="#F2C94C" stroke-width="31" stroke-miterlimit="1.5" stroke-linecap="round" stroke-linejoin="round"/>
</svg>
